<svg width="6500" height="3215" viewBox="0 0 6500 3215" fill="none" xmlns="http://www.w3.org/2000/svg">
<g clip-path="url(#clip0_1_59)">
<path d="M6500 0H0V3214.07H6500V0Z" fill="white"/>
<path d="M2396.33 2365.91C2956.66 2365.91 3410.9 1911.67 3410.9 1351.34C3410.9 791.008 2956.66 336.77 2396.33 336.77C1836 336.77 1381.76 791.008 1381.76 1351.34C1381.76 1911.67 1836 2365.91 2396.33 2365.91Z" fill="#FFB300"/>
<g style="mix-blend-mode:multiply">
<path d="M1173.35 1813.65C1428.68 1813.65 1635.66 1606.67 1635.66 1351.34C1635.66 1096.01 1428.68 889.03 1173.35 889.03C918.023 889.03 711.04 1096.01 711.04 1351.34C711.04 1606.67 918.023 1813.65 1173.35 1813.65Z" fill="#BDBDB8"/>
</g>
<g style="mix-blend-mode:multiply">
<path d="M4825.82 1607.21C4967.13 1607.21 5081.69 1492.65 5081.69 1351.34C5081.69 1210.03 4967.13 1095.47 4825.82 1095.47C4684.51 1095.47 4569.95 1210.03 4569.95 1351.34C4569.95 1492.65 4684.51 1607.21 4825.82 1607.21Z" fill="#BDBDB8"/>
</g>
<path d="M474.87 1423.54C514.745 1423.54 547.07 1391.21 547.07 1351.34C547.07 1311.47 514.745 1279.14 474.87 1279.14C434.995 1279.14 402.67 1311.47 402.67 1351.34C402.67 1391.21 434.995 1423.54 474.87 1423.54Z" fill="#FFB300"/>
<path d="M6500 3214.07H4825.82V3128.19L6500 2854.48V3214.07Z" fill="black"/>
<path d="M6500 2770.59L4825.82 3108.15V3022.27L6500 2410.99V2770.59Z" fill="black"/>
<path d="M6500 2327.09L4825.82 3002.24V2916.36L6500 1967.5V2327.09Z" fill="black"/>
<path d="M6500 1524.01V1883.6L4825.82 2896.32V2810.44L6500 1524.01Z" fill="black"/>
<path d="M3992.83 3214.07H3410.36V3184.2L3992.83 3132.05V3214.07Z" fill="black"/>
<path d="M3992.83 3112.91L3410.36 3177.22V3147.34L3992.83 3030.9V3112.91Z" fill="black"/>
<path d="M3992.83 3011.76L3410.36 3140.37V3110.5L3992.83 2929.74V3011.76Z" fill="black"/>
<path d="M3992.83 2828.58V2910.6L3410.36 3103.52V3073.64L3992.83 2828.58Z" fill="black"/>
<path d="M0 3214.07H1422.09V3166.52L0 3083.53V3214.07Z" fill="black"/>
<path d="M0 3053.07L1422.09 3155.42V3107.86L0 2922.52V3053.07Z" fill="black"/>
<path d="M0 2892.07L1422.09 3096.77V3049.22L0 2761.52V2892.07Z" fill="black"/>
<path d="M0 2600.51V2731.06L1422.09 3038.12V2990.56L0 2600.51Z" fill="black"/>
<path d="M4317.64 3214.07H4825.82V3128.19L4317.64 3047.88V3214.07Z" fill="black"/>
<path d="M4317.64 3009.1L4825.82 3108.15V3022.27L4317.64 2842.89V3009.1Z" fill="black"/>
<path d="M4317.64 2804.12L4825.82 3002.24V2916.36L4317.64 2637.92V2804.12Z" fill="black"/>
<path d="M4317.64 2432.95V2599.14L4825.82 2896.32V2810.44L4317.64 2432.95Z" fill="black"/>
<path d="M2396.33 3214.07H3410.36V3042.71L2396.33 2882.44V3214.07Z" fill="black"/>
<path d="M2396.33 2805.05L3410.36 3002.72V2831.35L2396.33 2473.42V2805.05Z" fill="black"/>
<path d="M2396.33 2396.03L3410.36 2791.36V2619.99L2396.33 2064.4V2396.03Z" fill="black"/>
<path d="M2396.33 1655.37V1987.01L3410.36 2580.01V2408.64L2396.33 1655.37Z" fill="black"/>
<path d="M3992.83 3214.07H4317.64V3047.88L3992.83 3081.53V3214.07Z" fill="black"/>
<path d="M3992.83 3050.59L4317.64 3009.1V2842.89L3992.83 2918.04V3050.59Z" fill="black"/>
<path d="M3992.83 2887.11L4317.64 2804.12V2637.92L3992.83 2754.56V2887.11Z" fill="black"/>
<path d="M3992.83 2591.08V2723.63L4317.64 2599.14V2432.95L3992.83 2591.08Z" fill="black"/>
<path d="M1422.09 3214.07H2396.33V2882.43L1422.09 2967.7V3214.07Z" fill="black"/>
<path d="M1422.09 2910.22L2396.33 2805.06V2473.42L1422.09 2663.85V2910.22Z" fill="black"/>
<path d="M1422.09 2606.38L2396.33 2396.04V2064.4L1422.09 2360V2606.38Z" fill="black"/>
<path d="M1422.09 2056.14V2302.51L2396.33 1987.01V1655.37L1422.09 2056.14Z" fill="black"/>
<path d="M2402 460.5H2496C2533.67 460.5 2562.33 470.833 2582 491.5C2602 512.167 2612 539.667 2612 574V711C2612 777.667 2576.67 811 2506 811H2402V460.5ZM2557 569C2557 550.667 2552.33 537.333 2543 529C2534 520.333 2520 516 2501 516H2457V760.5H2498C2516 760.5 2530.33 757.833 2541 752.5C2551.67 746.833 2557 734.667 2557 716V569ZM2818.09 713.5H2745.09V811H2690.09V461H2808.59C2830.59 461 2848.92 466.5 2863.59 477.5C2878.25 488.167 2889.09 502.5 2896.09 520.5C2903.42 538.5 2907.09 558.333 2907.09 580C2907.09 596.333 2906.42 610.5 2905.09 622.5C2903.75 634.5 2900.25 647 2894.59 660C2889.25 673 2880.59 684.667 2868.59 695L2907.59 811H2851.59L2818.09 713.5ZM2795.59 661C2811.92 661 2823.92 656.833 2831.59 648.5C2839.59 639.833 2844.42 630 2846.09 619C2848.09 608 2849.09 595 2849.09 580C2849.09 562.333 2846.59 549 2841.59 540C2836.59 530.667 2829.59 524.5 2820.59 521.5C2811.59 518.167 2799.92 516.5 2785.59 516.5H2745.09V661H2795.59ZM3156.75 718.5C3156.75 752.167 3146.41 777 3125.75 793C3105.41 808.667 3080.91 816.5 3052.25 816.5C3034.25 816.5 3017.25 813.333 3001.25 807C2985.25 800.333 2972.08 789.667 2961.75 775C2951.75 760.333 2946.75 741.5 2946.75 718.5V557.5C2946.75 523.167 2956.08 497.167 2974.75 479.5C2993.75 461.833 3019.75 453 3052.75 453C3085.75 453 3111.25 462.333 3129.25 481C3147.58 499.667 3156.75 525.333 3156.75 558V718.5ZM3101.75 576C3101.75 562 3100.58 550.5 3098.25 541.5C3095.91 532.5 3091.08 525.5 3083.75 520.5C3076.41 515.167 3065.75 512.5 3051.75 512.5C3037.75 512.5 3027.08 515 3019.75 520C3012.41 525 3007.58 532 3005.25 541C3002.91 549.667 3001.75 561.167 3001.75 575.5V709C3001.75 725 3005.75 737.667 3013.75 747C3022.08 756 3034.75 760.5 3051.75 760.5C3067.41 760.5 3079.58 755.667 3088.25 746C3097.25 736.333 3101.75 723.667 3101.75 708V576ZM3211.08 461H3325.08C3360.08 461 3385.92 472.333 3402.58 495C3419.58 517.333 3428.08 545.5 3428.08 579.5C3428.08 668.833 3395.25 713.5 3329.58 713.5H3266.08V811H3211.08V461ZM3313.08 661C3332.08 661 3345.92 656.833 3354.58 648.5C3363.58 640.167 3368.92 630.833 3370.58 620.5C3372.25 609.833 3373.08 596.5 3373.08 580.5C3373.08 562.833 3370.58 549.333 3365.58 540C3360.92 530.333 3354.08 524 3345.08 521C3336.42 517.667 3325.08 516 3311.08 516H3266.08V661H3313.08ZM3357.36 786C3357.36 792.667 3354.86 798.5 3349.86 803.5C3344.86 808.5 3338.86 811 3331.86 811C3325.19 811 3319.36 808.5 3314.36 803.5C3309.36 798.5 3306.86 792.667 3306.86 786C3306.86 779 3309.36 773 3314.36 768C3319.36 763 3325.19 760.5 3331.86 760.5C3338.86 760.5 3344.86 763 3349.86 768C3354.86 773 3357.36 779 3357.36 786ZM2642 941.5L2551 1209H2520.5L2430 941.5V1209H2402V859H2430L2535.5 1166L2642 859H2670V1209H2642V941.5ZM2957.67 858.5V1116C2957.67 1149.67 2947.33 1174.17 2926.67 1189.5C2906.33 1204.83 2881.67 1212.5 2852.67 1212.5C2823.67 1212.5 2798.83 1204.83 2778.17 1189.5C2757.5 1174.17 2747.17 1149.67 2747.17 1116V858.5H2775.17V1120C2775.17 1140.33 2782.5 1156.67 2797.17 1169C2812.17 1181.33 2830.5 1187.5 2852.17 1187.5C2873.83 1187.5 2892.17 1181.33 2907.17 1169C2922.17 1156.67 2929.67 1140.33 2929.67 1120V858.5H2957.67ZM3040.37 1120C3041.37 1131.33 3045.54 1142.17 3052.87 1152.5C3060.54 1162.83 3070.87 1171.33 3083.87 1178C3097.2 1184.33 3112.37 1187.5 3129.37 1187.5C3155.04 1187.5 3176.37 1181.83 3193.37 1170.5C3210.7 1158.83 3219.37 1140.5 3219.37 1115.5C3219.37 1100.83 3215.2 1088.67 3206.87 1079C3198.54 1069 3188.2 1061.17 3175.87 1055.5C3163.54 1049.5 3146.7 1042.67 3125.37 1035C3102.37 1027 3083.87 1019.67 3069.87 1013C3056.2 1006 3044.54 996.667 3034.87 985C3025.54 973.333 3020.87 958.333 3020.87 940C3020.87 925.333 3025.04 911.5 3033.37 898.5C3041.7 885.167 3054.2 874.5 3070.87 866.5C3087.87 858.167 3108.7 854 3133.37 854C3149.7 854 3163.2 855.167 3173.87 857.5C3184.54 859.833 3195.37 863.667 3206.37 869L3197.87 895.5C3178.87 885.833 3157.7 881 3134.37 881C3108.7 881 3088.2 886.333 3072.87 897C3057.54 907.667 3049.87 922.5 3049.87 941.5C3049.87 953.5 3053.7 963.667 3061.37 972C3069.04 980 3078.37 986.5 3089.37 991.5C3100.7 996.5 3116.37 1002.5 3136.37 1009.5C3160.7 1017.83 3180.37 1025.67 3195.37 1033C3210.37 1040 3223.04 1050.17 3233.37 1063.5C3244.04 1076.5 3249.37 1093 3249.37 1113C3249.37 1143.67 3239.54 1168.33 3219.87 1187C3200.54 1205.33 3170.54 1214.5 3129.87 1214.5C3105.2 1214.5 3084.04 1210 3066.37 1201C3049.04 1191.67 3035.7 1179.83 3026.37 1165.5C3017.37 1150.83 3012.54 1135.67 3011.87 1120H3040.37ZM3312.64 859H3479.64V885H3340.64V1002.5H3436.14L3426.64 1030H3340.64V1184H3478.64V1209H3312.64V859ZM3753.57 858.5V1116C3753.57 1149.67 3743.23 1174.17 3722.57 1189.5C3702.23 1204.83 3677.57 1212.5 3648.57 1212.5C3619.57 1212.5 3594.73 1204.83 3574.07 1189.5C3553.4 1174.17 3543.07 1149.67 3543.07 1116V858.5H3571.07V1120C3571.07 1140.33 3578.4 1156.67 3593.07 1169C3608.07 1181.33 3626.4 1187.5 3648.07 1187.5C3669.73 1187.5 3688.07 1181.33 3703.07 1169C3718.07 1156.67 3725.57 1140.33 3725.57 1120V858.5H3753.57ZM4068.27 941.5L3977.27 1209H3946.77L3856.27 941.5V1209H3828.27V859H3856.27L3961.77 1166L4068.27 859H4096.27V1209H4068.27V941.5Z" fill="black"/>
<path d="M2480.43 1476.93C2475.09 1478.91 2470.11 1479.9 2465.49 1479.9C2460.27 1479.9 2456.04 1478.52 2452.8 1475.76C2449.56 1473 2447.94 1468.59 2447.94 1462.53V1433.64C2447.94 1429.08 2448.57 1425.63 2449.83 1423.29C2451.15 1420.95 2453.13 1418.97 2455.77 1417.35C2458.41 1415.85 2461.65 1415.1 2465.49 1415.1C2470.17 1415.1 2474.4 1416.09 2478.18 1418.07L2475.39 1427.07C2472.63 1426.05 2469.6 1425.54 2466.3 1425.54C2463.78 1425.54 2461.74 1426.23 2460.18 1427.61C2458.62 1428.99 2457.84 1430.73 2457.84 1432.83V1462.35C2457.84 1467.39 2460.66 1469.91 2466.3 1469.91C2468.1 1469.91 2469.9 1469.73 2471.7 1469.37C2473.5 1468.95 2475.9 1468.35 2478.9 1467.57L2480.43 1476.93ZM2510.73 1461.45H2497.59V1479H2487.69V1416H2509.02C2512.98 1416 2516.28 1416.99 2518.92 1418.97C2521.56 1420.89 2523.51 1423.47 2524.77 1426.71C2526.09 1429.95 2526.75 1433.52 2526.75 1437.42C2526.75 1440.36 2526.63 1442.91 2526.39 1445.07C2526.15 1447.23 2525.52 1449.48 2524.5 1451.82C2523.54 1454.16 2521.98 1456.26 2519.82 1458.12L2526.84 1479H2516.76L2510.73 1461.45ZM2506.68 1452C2509.62 1452 2511.78 1451.25 2513.16 1449.75C2514.6 1448.19 2515.47 1446.42 2515.77 1444.44C2516.13 1442.46 2516.31 1440.12 2516.31 1437.42C2516.31 1434.24 2515.86 1431.84 2514.96 1430.22C2514.06 1428.54 2512.8 1427.43 2511.18 1426.89C2509.56 1426.29 2507.46 1425.99 2504.88 1425.99H2497.59V1452H2506.68ZM2538.49 1416H2568.55V1425.9H2548.39V1441.83H2560.72L2557.93 1451.28H2548.39V1470H2568.37V1479H2538.49V1416ZM2604.36 1462.53H2589.87L2586.36 1479H2575.2L2589.96 1416H2603.91L2619.84 1479H2608.05L2604.36 1462.53ZM2592.21 1452H2602.02L2596.89 1432.56L2592.21 1452ZM2627.75 1425.99H2614.79V1416H2650.97V1425.99H2637.65V1479H2627.75V1425.99ZM2658.02 1416H2688.08V1425.9H2667.92V1441.83H2680.25L2677.46 1451.28H2667.92V1470H2687.9V1479H2658.02V1416ZM2734.81 1436.43V1479H2724.91V1416H2734.81L2759.2 1458.3V1416H2769.19V1479H2759.2L2734.81 1436.43ZM2783.44 1416H2813.5V1425.9H2793.34V1441.83H2805.67L2802.88 1451.28H2793.34V1470H2813.32V1479H2783.44V1416ZM2856.69 1447.23L2848.86 1479H2837.34L2825.28 1416H2836.17L2843.55 1456.32L2853.18 1416H2860.2L2869.83 1456.32L2876.58 1416H2887.92L2875.86 1479H2864.7L2856.69 1447.23ZM2923.54 1415.91H2940.46C2947.24 1415.91 2952.4 1417.77 2955.94 1421.49C2959.54 1425.21 2961.34 1430.16 2961.34 1436.34V1461C2961.34 1473 2954.98 1479 2942.26 1479H2923.54V1415.91ZM2951.44 1435.44C2951.44 1432.14 2950.6 1429.74 2948.92 1428.24C2947.3 1426.68 2944.78 1425.9 2941.36 1425.9H2933.44V1469.91H2940.82C2944.06 1469.91 2946.64 1469.43 2948.56 1468.47C2950.48 1467.45 2951.44 1465.26 2951.44 1461.9V1435.44ZM2998.44 1461.45H2985.3V1479H2975.4V1416H2996.73C3000.69 1416 3003.99 1416.99 3006.63 1418.97C3009.27 1420.89 3011.22 1423.47 3012.48 1426.71C3013.8 1429.95 3014.46 1433.52 3014.46 1437.42C3014.46 1440.36 3014.34 1442.91 3014.1 1445.07C3013.86 1447.23 3013.23 1449.48 3012.21 1451.82C3011.25 1454.16 3009.69 1456.26 3007.53 1458.12L3014.55 1479H3004.47L2998.44 1461.45ZM2994.39 1452C2997.33 1452 2999.49 1451.25 3000.87 1449.75C3002.31 1448.19 3003.18 1446.42 3003.48 1444.44C3003.84 1442.46 3004.02 1440.12 3004.02 1437.42C3004.02 1434.24 3003.57 1431.84 3002.67 1430.22C3001.77 1428.54 3000.51 1427.43 2998.89 1426.89C2997.27 1426.29 2995.17 1425.99 2992.59 1425.99H2985.3V1452H2994.39ZM3059.4 1462.35C3059.4 1468.41 3057.54 1472.88 3053.82 1475.76C3050.16 1478.58 3045.75 1479.99 3040.59 1479.99C3037.35 1479.99 3034.29 1479.42 3031.41 1478.28C3028.53 1477.08 3026.16 1475.16 3024.3 1472.52C3022.5 1469.88 3021.6 1466.49 3021.6 1462.35V1433.37C3021.6 1427.19 3023.28 1422.51 3026.64 1419.33C3030.06 1416.15 3034.74 1414.56 3040.68 1414.56C3046.62 1414.56 3051.21 1416.24 3054.45 1419.6C3057.75 1422.96 3059.4 1427.58 3059.4 1433.46V1462.35ZM3049.5 1436.7C3049.5 1434.18 3049.29 1432.11 3048.87 1430.49C3048.45 1428.87 3047.58 1427.61 3046.26 1426.71C3044.94 1425.75 3043.02 1425.27 3040.5 1425.27C3037.98 1425.27 3036.06 1425.72 3034.74 1426.62C3033.42 1427.52 3032.55 1428.78 3032.13 1430.4C3031.71 1431.96 3031.5 1434.03 3031.5 1436.61V1460.64C3031.5 1463.52 3032.22 1465.8 3033.66 1467.48C3035.16 1469.1 3037.44 1469.91 3040.5 1469.91C3043.32 1469.91 3045.51 1469.04 3047.07 1467.3C3048.69 1465.56 3049.5 1463.28 3049.5 1460.46V1436.7ZM3069.18 1416H3089.7C3096 1416 3100.65 1418.04 3103.65 1422.12C3106.71 1426.14 3108.24 1431.21 3108.24 1437.33C3108.24 1453.41 3102.33 1461.45 3090.51 1461.45H3079.08V1479H3069.18V1416ZM3087.54 1452C3090.96 1452 3093.45 1451.25 3095.01 1449.75C3096.63 1448.25 3097.59 1446.57 3097.89 1444.71C3098.19 1442.79 3098.34 1440.39 3098.34 1437.51C3098.34 1434.33 3097.89 1431.9 3096.99 1430.22C3096.15 1428.48 3094.92 1427.34 3093.3 1426.8C3091.74 1426.2 3089.7 1425.9 3087.18 1425.9H3079.08V1452H3087.54Z" fill="black"/>
<rect x="2400" y="1336" width="753" height="20" fill="black"/>
<rect x="2400" y="1528" width="753" height="20" fill="black"/>
</g>
<defs>
<clipPath id="clip0_1_59">
<rect width="6500" height="3214.07" fill="white"/>
</clipPath>
</defs>
</svg>
